<svg width="87" height="126" viewBox="0 0 87 126" fill="none" xmlns="http://www.w3.org/2000/svg">
<path d="M77.5591 0.66777C76.6128 1.19071 75.0938 2.65993 71.732 6.34544C69.2418 9.08468 67.0006 11.7741 66.7516 12.3219C66.2037 13.5173 66.1539 14.9118 66.6271 16.0324L66.9757 16.879L64.61 19.4688C63.2902 20.8634 61.2731 23.1295 60.1276 24.4493C58.7331 26.0679 57.8117 26.9395 57.3635 27.0391C54.948 27.562 52.8064 28.2593 50.4407 29.2803C44.8626 31.646 41.6752 31.6958 36.3212 29.4297C30.3696 26.9146 25.2647 26.0181 20.2096 26.6158C9.10324 27.9605 2.25516 34.6342 0.41241 45.9398C-1.28093 56.2492 2.25517 69.796 10.7468 85.6586C14.2331 92.183 15.3039 95.2957 17.4703 105.58C19.6617 116.039 20.7076 119.525 22.4259 122.19C24.169 124.879 26.0118 126 28.8008 126C31.042 126 32.3618 125.402 33.4077 123.983C35.5742 120.97 36.4457 117.06 37.8901 103.962C38.7367 96.0677 39.434 91.5604 40.181 89.1698C41.3016 85.5092 42.6713 84.0649 44.0658 85.061C46.0579 86.5302 47.1287 91.0624 48.598 104.46C49.7684 115.143 50.4656 118.878 51.8352 121.891C53.155 124.855 54.7239 125.975 57.4631 126C62.2692 126 65.0084 122.489 67.2496 113.424C67.5235 112.329 68.2955 108.743 68.9928 105.456C70.9351 96.2171 72.1304 92.3822 74.4961 87.8998C79.3271 78.7358 81.1699 74.6519 83.2119 68.4762C85.6274 61.2048 86.6483 55.2034 86.3744 49.6751C86.0009 42.6776 83.9589 37.2489 80.124 33.1899C76.3389 29.1807 72.0059 27.2134 65.5065 26.5659L62.5431 26.2671L64.2116 24.3995C65.108 23.3785 66.5773 21.7598 67.4488 20.8385L69.0426 19.1451L70.3375 19.419C71.8067 19.7179 73.5 19.3443 74.5708 18.5226C75.8159 17.5016 84.2827 8.03879 84.6313 7.24192C85.5776 5.02563 84.7807 2.28641 82.7885 0.891891C81.2197 -0.203804 79.3022 -0.303413 77.5591 0.66777ZM81.3442 3.60622C81.7924 4.02955 81.9668 4.47779 81.9668 5.19995C81.9668 6.12133 81.7177 6.44505 77.4346 11.1266C74.9693 13.841 72.6036 16.2067 72.2051 16.381C70.3624 17.1779 68.5943 15.1608 69.5655 13.3678C69.8643 12.7951 77.7334 4.12916 78.5801 3.4319C79.352 2.78445 80.622 2.85915 81.3442 3.60622ZM26.1861 29.7285C29.5728 29.9775 34.2793 31.4717 36.9687 33.1899C37.6659 33.663 39.1601 34.8832 40.2558 35.9042C42.5467 38.0707 43.8915 38.8427 45.7342 39.017C46.9046 39.1415 47.0789 39.0917 47.4525 38.5688C48.2742 37.3735 47.7264 36.5517 45.6844 36.0287C45.0121 35.8544 44.0409 35.3813 43.5179 34.9828L42.5467 34.2607L44.9622 33.937C47.7513 33.5883 48.324 33.4389 51.7854 31.9697C53.2048 31.372 54.4748 30.874 54.6243 30.874C54.7737 30.874 54.5496 31.2973 54.176 31.7954C52.0593 34.5844 48.1248 40.2372 46.1077 43.4496L43.7669 47.1102L41.974 46.9608C40.953 46.8612 38.8363 46.4129 37.2426 45.9398C33.4077 44.8192 30.9175 44.4706 27.7051 44.6449C21.6041 44.9686 17.2711 47.5584 15.0797 52.1653C13.6105 55.2283 13.1623 57.4196 13.1623 61.3791C13.1623 66.8575 14.3078 71.2652 18.1925 80.6533C21.0811 87.601 21.5045 89.5184 23.0733 101.969C24.5674 113.673 25.439 116.039 28.2778 116.039C31.042 116.039 31.8887 113.723 32.5361 104.31C33.4077 91.7098 34.1796 87.352 36.3959 82.7949C38.0893 79.3086 40.9779 76.6939 43.1942 76.6939C45.4603 76.6939 48.1746 79.1094 49.9427 82.7451C52.1091 87.1278 53.0305 91.8592 53.7029 102.094C54.3254 111.607 54.7488 113.773 56.1931 115.217C57.2639 116.288 58.8576 116.388 60.028 115.417C61.4972 114.172 62.0949 111.656 63.4147 101.372C64.9088 89.4935 65.3322 87.7504 68.1461 80.8027C72.23 70.7921 73.2759 66.8326 73.2759 61.2546C73.2759 57.5442 72.753 55.2283 71.2589 52.0657C69.0177 47.409 64.8839 44.9935 58.509 44.6449C55.5207 44.4706 53.1301 44.7943 50.0174 45.7157C48.9217 46.0394 47.9754 46.2635 47.9256 46.2137C47.6517 45.9398 56.6413 33.3393 59.0817 30.5503L59.9284 29.5791L63.0412 29.604C69.5406 29.604 73.8487 31.1977 77.6338 34.9579C79.2773 36.6015 79.8501 37.3984 80.8213 39.3407C84.1581 46.1639 84.2827 54.5559 81.1948 65.1891C79.8501 69.8458 77.5093 75.374 73.9234 82.4213C69.0426 92.0834 68.3951 93.8514 66.0543 104.833C64.3112 113.026 64.0871 113.922 63.3898 116.139C61.821 121.044 60.1276 123.012 57.4133 123.012C56.4172 123.012 56.0437 122.887 55.6452 122.439C53.7776 120.422 52.9309 116.537 51.4617 103.314C49.9925 90.1161 49.0462 86.0819 46.8299 83.5419C45.9334 82.5458 44.3895 81.6992 43.3934 81.6743C41.476 81.6743 39.6083 82.9941 38.5126 85.1606C36.9687 88.1986 36.122 92.6312 34.9018 103.713C33.7314 114.495 32.8349 119.202 31.5151 121.443C30.7681 122.713 30.2949 123.012 28.9253 123.012C26.9829 123.012 25.4888 121.866 24.2686 119.401C23.2974 117.508 22.2515 113.649 20.7076 106.502C18.0929 94.1751 17.0968 91.162 13.5856 84.6625C8.655 75.4737 5.44263 67.2809 3.8987 59.86C3.00223 55.552 2.77811 49.7498 3.37576 46.2386C4.82008 37.7719 9.35226 32.4179 16.8229 30.376C18.7154 29.853 22.4259 29.4048 23.6959 29.5293C24.0445 29.5791 25.1651 29.6538 26.1861 29.7285ZM34.9018 48.4051C37.0434 49.0525 39.4838 49.6502 41.1771 49.9241L42.0985 50.0735L41.202 51.6174C39.434 54.7302 35.2255 63.4708 33.9306 66.733C28.7012 79.9062 26.3106 91.909 26.8086 102.542C26.8833 104.659 27.0327 106.527 27.1075 106.726C27.2569 107.124 28.3277 107.199 28.5518 106.85C28.6265 106.701 28.8008 104.509 28.9253 101.92C29.0747 99.3548 29.3486 95.6693 29.5728 93.7518C31.0171 80.7778 35.9975 66.484 43.9164 52.6633L45.4852 49.949L46.8548 49.6751C47.6019 49.5008 49.1707 49.1023 50.3411 48.7288C54.4998 47.4588 57.8615 47.2347 61.1237 47.9568C66.0543 49.0774 68.4698 51.5427 69.8145 56.8469C70.2628 58.59 70.3126 59.362 70.1881 62.3752C69.9889 67.3805 69.1671 70.3687 65.4318 79.5327C62.4435 86.8788 62.0202 88.7216 60.4264 101.098C59.281 110.137 58.7829 112.553 58.1604 112.553C57.5876 112.553 57.2141 109.938 56.6911 101.845C55.7449 87.7504 53.7527 81.0019 49.2703 76.6192C47.3778 74.7764 45.7093 74.0791 43.244 74.0791C40.8534 74.0791 39.1103 74.7764 37.2924 76.4697C33.1089 80.3047 30.793 87.3769 29.9214 99.1057C29.772 101.098 29.5479 104.236 29.4233 106.078C29.0747 110.436 28.7261 112.553 28.3028 112.553C27.6055 112.553 27.1822 110.511 25.9371 100.849C24.3931 88.6718 23.9698 86.9535 21.0811 79.8066C17.2213 70.294 16.1754 66.4342 16.1505 61.5036C16.1256 53.7839 19.1139 49.3265 25.2647 47.907C27.7051 47.3592 32.2622 47.5833 34.9018 48.4051Z" fill="#4D4D4D"/>
</svg>
