<svg width="136" height="120" viewBox="0 0 136 120" fill="none" xmlns="http://www.w3.org/2000/svg">
<path d="M23.7517 0.226837C20.6068 0.665939 17.3297 1.56998 16.6954 2.1899C15.9026 2.96478 15.929 3.97215 16.7483 4.74703C17.5411 5.54776 17.7526 5.54776 20.9767 4.69537C23.4081 4.07546 24.0159 3.99797 28.7729 3.99797C33.3978 3.99797 34.2699 4.07546 37.362 4.72121C39.2648 5.10865 42.7797 6.06435 45.1846 6.83924C47.5895 7.5883 50.0209 8.23405 50.6023 8.23405C51.1837 8.23405 53.6151 7.5883 56.02 6.81342C65.9568 3.61053 74.2023 3.01645 81.3378 5.03117C83.5842 5.6769 86.5705 7.02005 88.0769 8.05324C90.2704 9.52553 94.3138 13.9682 94.3138 14.8723C94.3138 15.0014 93.336 15.0273 92.1468 14.9239C88.0769 14.5623 82.4742 15.363 78.4307 16.8353C67.7803 20.7615 60.1163 29.5952 57.6849 40.8311C57.1035 43.4399 57.0507 49.8974 57.5528 52.4028C58.8213 58.7053 61.9134 64.5686 66.3532 69.0888C70.8724 73.6865 77.5322 77.2252 83.7163 78.2842C84.6677 78.4392 85.5398 78.6458 85.6455 78.7491C85.9098 78.9558 85.4341 84.9999 84.9055 88.5128C83.7692 96.0034 81.0471 101.092 77.1886 102.952C75.788 103.623 75.4444 103.675 72.5109 103.675C69.4453 103.675 69.2603 103.649 67.5689 102.822C64.5033 101.35 62.3627 98.4314 60.9356 93.7304C59.6934 89.7009 59.2442 86.9113 58.2399 77.3285C57.3678 68.908 56.9714 66.9966 55.5971 64.2845C54.54 62.244 52.3465 60.6683 50.5759 60.6683C48.7788 60.6683 46.6381 62.244 45.5282 64.3362C44.2068 66.8675 43.6782 69.5796 42.7797 78.7491C41.2204 94.1695 38.8948 100.265 33.5564 102.848C31.8914 103.649 31.7064 103.675 28.6408 103.675C25.9452 103.675 25.2845 103.597 24.2274 103.107C21.6903 101.97 19.5761 99.4646 18.1754 95.9259C16.2462 91.1216 15.6119 86.1623 15.2948 73.8415C15.1098 66.2992 14.9776 64.1553 14.5019 61.7015C13.762 57.7238 12.097 52.9969 9.11067 46.2295C4.88223 36.6984 4.08939 33.5988 4.08939 26.9606C4.08939 24.0935 4.22153 22.2596 4.53867 20.9939C5.54292 16.6545 7.49858 13.09 10.2735 10.4296C12.1763 8.62149 12.5463 7.92409 12.1234 6.91673C11.7799 6.11601 10.5642 5.52193 9.77137 5.78022C8.95211 6.03852 6.01862 8.93145 4.72366 10.7912C1.28805 15.7763 -0.297618 21.8205 0.0459427 28.6395C0.389504 34.9161 1.3409 38.274 5.35793 47.4952C10.6699 59.6093 11.0399 61.2108 11.357 74.0998C11.6213 85.7748 12.2027 90.6308 13.8677 95.6676C15.9555 101.918 19.5761 105.844 24.5181 107.265C26.3416 107.782 30.755 107.808 32.7107 107.291C35.2742 106.645 36.992 105.612 39.0798 103.571C43.5989 99.1288 45.211 93.8078 46.876 77.7159C47.7481 69.3471 48.2238 67.1774 49.5716 65.3952C50.3116 64.3878 50.6816 64.3362 51.448 65.1369C52.8222 66.5833 53.4036 69.063 54.2758 77.4576C55.5971 90.1917 56.4693 94.3761 58.8478 99.1546C59.8256 101.118 60.4599 101.996 62.0719 103.571C65.1376 106.619 67.9125 107.678 72.7488 107.678C76.6072 107.678 79.5143 106.619 82.1042 104.217C86.4384 100.265 88.764 93.4979 89.5304 82.8302C89.6626 80.8672 89.8475 79.1624 89.9533 79.0074C90.0325 78.8783 90.9047 78.7491 91.8825 78.7491C92.8603 78.7491 94.7895 78.5167 96.1638 78.2325C97.538 77.9484 98.8066 77.7159 98.9651 77.7159C99.1237 77.7159 100.604 80.1698 102.242 83.1918C105.466 89.1327 105.361 88.6936 103.59 89.6493C102.454 90.2692 101.714 91.5607 101.714 92.9555C101.714 94.1695 101.978 94.6861 110.118 109.616C113.897 116.564 115.694 118.294 120.134 119.431C126.688 121.11 133.559 116.874 134.986 110.313C135.832 106.335 135.462 105.25 128.881 93.1363C124.177 84.4833 123.12 82.7269 122.354 82.2103C121.138 81.4096 119.473 81.3838 117.861 82.1586C117.2 82.4686 116.645 82.5978 116.592 82.4686C116.54 82.3395 115.192 79.8598 113.606 76.9411L110.725 71.646L112.998 69.4246C119.579 62.9672 122.856 54.7017 122.512 45.558C122.327 41.0894 122.063 40.0821 120.927 39.6171C119.949 39.2297 119.235 39.4363 118.548 40.3145C118.099 40.9086 118.072 41.1411 118.337 42.7942C120.662 57.4913 110.54 71.4135 95.3181 74.4614C92.7017 74.978 87.3898 75.0038 84.6148 74.4872C73.8323 72.4983 65.2433 64.8528 62.2041 54.5467C59.8784 46.7461 61.2527 38.1965 65.9304 31.2225C67.4896 28.8978 71.0838 25.2816 73.4095 23.7577C75.7351 22.2079 80.0164 20.2707 82.5799 19.6249C94.446 16.577 107.078 21.3297 113.791 31.3258C115.773 34.2704 116.09 34.5803 117.042 34.5803C118.205 34.5803 118.892 33.9088 118.892 32.7723C118.892 30.5509 113.315 23.8094 109.008 20.8389C106.92 19.3925 102.797 17.3003 100.762 16.6545C99.4408 16.2413 99.4144 16.2154 98.0666 13.5808C91.1689 0.25267 73.6737 -3.64762 53.4036 3.5847C52.2144 3.99797 50.9459 4.35959 50.5759 4.35959C50.2323 4.35959 48.7788 3.94631 47.3517 3.42972C44.2332 2.34487 39.7933 1.18253 36.5691 0.614281C33.7678 0.12352 26.2094 -0.108948 23.7517 0.226837ZM110.276 79.1107C111.809 81.9262 113.078 84.3283 113.078 84.4575C113.078 84.6383 109.113 86.7563 108.743 86.7563C108.532 86.7563 103.009 76.347 103.167 76.2178C103.326 76.0628 107.369 73.8931 107.448 73.9448C107.475 73.9706 108.743 76.2695 110.276 79.1107ZM121.561 87.9703L122.856 90.295L115.562 94.092C111.545 96.1842 108.241 97.8631 108.188 97.8115C107.633 97.114 105.625 92.8521 105.81 92.8005C105.968 92.723 109.166 91.0699 112.945 89.081C116.725 87.0921 119.922 85.5165 120.054 85.5423C120.16 85.594 120.847 86.6788 121.561 87.9703ZM127.745 99.2837C131.048 105.38 131.445 106.361 131.233 108.479C130.731 114.084 124.6 117.571 119.526 115.143C117.306 114.11 116.328 112.844 113.13 106.929C111.492 103.907 110.197 101.35 110.276 101.298C110.725 100.834 124.6 93.8078 124.759 93.937C124.864 94.0403 126.186 96.4425 127.745 99.2837Z" fill="#4D4D4D"/>
<path d="M86.5177 23.6284C82.2099 24.5066 79.6729 25.4365 76.9244 27.167C70.0532 31.5064 66.0361 38.7129 66.0361 46.746C66.0361 48.4507 66.2211 50.5946 66.4325 51.6019C68.2561 60.0741 74.6516 66.764 83.3463 69.347C85.4606 69.9669 86.1741 70.0444 89.689 70.0702C93.0189 70.096 93.9967 69.9927 95.7938 69.5278C104.383 67.2289 110.752 60.9781 112.998 52.6868C113.844 49.5614 113.976 44.5246 113.263 41.7092C112.1 37.1373 109.721 33.1337 106.259 29.8792C101.714 25.6431 96.0052 23.4476 89.689 23.4992C88.2355 23.5251 86.8084 23.5767 86.5177 23.6284ZM95.7674 28.2261C105.44 31.2998 111.228 40.4693 109.536 50.0522C108.083 58.1369 102.004 64.2843 93.706 66.0149C91.4068 66.4799 87.0726 66.3249 84.6677 65.705C80.8885 64.6976 76.898 62.1921 74.493 59.325C72.8545 57.362 70.9517 53.6683 70.4231 51.3695C69.8682 49.1223 69.8682 44.5246 70.4231 42.3549C72.2731 35.0193 78.0872 29.4401 85.7248 27.7095C88.2619 27.1412 93.151 27.3737 95.7674 28.2261Z" fill="#4D4D4D"/>
<path d="M86.782 33.3147C85.7249 33.7021 84.5621 34.7869 84.1128 35.7943C83.9014 36.2851 83.7428 37.5249 83.7428 38.7131V40.7794H81.9722C78.7744 40.7794 77.0302 41.6318 76.1845 43.5432C75.7352 44.5506 75.6823 48.9416 76.1052 50.0006C76.8187 51.8862 78.3251 52.6869 81.4172 52.8677L83.7428 52.9969V55.0374C83.7428 57.3879 84.1392 58.4728 85.3021 59.4543C86.4913 60.4358 87.9977 60.7458 90.6669 60.5908C94.6046 60.3842 95.8996 59.041 95.8996 55.1924V52.9969L98.2517 52.8677C101.106 52.7128 102.374 52.1445 103.22 50.698C103.749 49.8198 103.828 49.3032 103.828 46.9011C103.828 43.5949 103.484 42.6133 101.899 41.606C101 41.0377 100.498 40.9086 98.3838 40.8311L95.8996 40.7278V38.5323C95.8996 35.9235 95.371 34.6836 93.8647 33.7796C93.019 33.263 92.464 33.1597 90.2176 33.108C88.7641 33.0822 87.2313 33.1597 86.782 33.3147ZM91.9354 40.2887C92.1204 44.7056 92.0147 44.6281 96.4017 44.7056L99.7316 44.783V46.8494V48.9158L96.4017 48.9933C92.0147 49.0708 92.1204 48.9933 91.9354 53.4102L91.8033 56.6647H89.8212H87.8391L87.707 53.2294C87.5484 48.9158 87.6806 49.0449 83.505 49.0449C81.8136 49.0449 80.2808 48.9416 80.0958 48.8125C79.8579 48.6833 79.7787 48.0634 79.8315 46.6944L79.9108 44.783L83.3993 44.6539C87.8391 44.4989 87.6806 44.6281 87.707 40.3662C87.707 38.6614 87.7863 37.1633 87.892 37.06C87.9977 36.9566 88.9227 36.9308 89.9534 36.9566L91.8033 37.0341L91.9354 40.2887Z" fill="#4D4D4D"/>
</svg>
