<svg width="100" height="126" viewBox="0 0 100 126" fill="none" xmlns="http://www.w3.org/2000/svg">
<path d="M34.0839 0.156124C30.3159 0.845676 26.6712 2.84046 23.9376 5.69717C21.6719 8.06136 20.6376 9.76061 19.6279 12.642C18.1995 16.7793 18.4704 22.7144 20.3174 27.3688C21.2532 29.7576 23.0264 32.7129 24.5286 34.3629L25.7846 35.742L30.3898 35.8159L34.9704 35.9144V39.9039C34.9704 44.3368 35.0936 44.7554 36.5958 45.3711C37.8025 45.8883 61.6906 45.8883 62.8973 45.3711C64.3996 44.7554 64.5227 44.3368 64.5227 39.9039V35.9144L69.1033 35.8159L73.7085 35.742L74.9645 34.3629C76.4667 32.7129 78.2399 29.7576 79.1757 27.3688C81.0227 22.7144 81.2936 16.7793 79.8652 12.642C78.8555 9.78524 77.8212 8.08598 75.6294 5.77106C73.413 3.40688 71.0734 1.92926 67.9705 0.870304C65.8279 0.131496 65.3846 0.0576172 62.4294 0.0576172C57.8488 0.0329895 54.8689 0.944187 51.3227 3.50538L49.7466 4.61359L48.1704 3.50538C46.3234 2.17553 44.0331 1.06732 41.9891 0.525528C40.2159 0.0329895 35.8324 -0.164024 34.0839 0.156124ZM40.2159 5.20464C41.9645 5.57404 44.9689 7.0024 45.7077 7.81509C46.1018 8.23375 46.1018 8.35688 45.8063 8.55389C45.1906 8.94793 43.048 9.51434 42.1615 9.51434C41.0779 9.51434 39.8958 10.6472 39.8958 11.7061C39.8958 14.292 42.26 15.0554 46.151 13.7009C48.1458 13.036 49.4018 12.1248 51.8398 9.66211C56.051 5.40165 60.4593 3.99792 65.6063 5.32777C68.1182 5.96807 69.9406 7.02703 71.9354 8.99718C74.5951 11.6569 75.8511 14.8338 75.8511 18.9464C75.8511 22.5173 74.6443 26.3345 72.5757 29.3882L71.5414 30.9397H49.7466H27.9518L26.8928 29.3882C24.8241 26.3345 23.642 22.5173 23.642 18.8726C23.642 16.3114 23.9868 14.7106 25.0704 12.4696C26.0801 10.3024 28.395 7.83971 30.5868 6.60837C33.3697 5.00762 36.9159 4.49046 40.2159 5.20464ZM59.5973 38.3278V40.7905H49.7466H39.8958V38.3278V35.8651H49.7466H59.5973V38.3278Z" fill="#4D4D4D"/>
<path d="M38.098 53.6949C36.4973 54.1382 35.0196 55.1971 34.0592 56.6255C33.6405 57.2412 33.2465 57.9061 33.1972 58.0539C33.1234 58.2509 32.5816 58.1277 31.4241 57.6845C28.3457 56.4531 27.1144 56.3054 18.5935 56.3054C12.3629 56.3054 10.3927 56.3792 9.28453 56.6748C4.85169 57.8322 1.20691 61.6494 0.271088 66.1069C0.0740731 67.0181 0.000192398 74.8002 0.000192398 91.2263C0.000192398 117.232 -0.0490614 116.37 1.42855 119.35C2.31512 121.123 4.90094 123.709 6.69871 124.571C9.8017 126.073 7.33901 125.999 49.7465 125.999C92.1787 125.999 89.7899 126.073 92.8436 124.571C94.5675 123.734 97.2026 121.099 98.0645 119.35C99.5421 116.395 99.4929 117.232 99.4929 91.2263C99.4929 74.8002 99.419 67.0181 99.222 66.1069C98.5324 62.8069 95.7988 59.1621 92.9175 57.6845C90.3809 56.4039 89.4697 56.3054 80.7764 56.3054C72.1077 56.3054 71.0488 56.4285 67.995 57.7091C66.8622 58.177 66.3697 58.2755 66.2958 58.0785C66.2465 57.9061 65.8525 57.2412 65.4339 56.6009C64.4734 55.1725 62.7249 53.9658 61.0749 53.621C59.1786 53.2024 39.6495 53.2762 38.098 53.6949ZM60.41 58.5464C61.9615 59.3345 62.3062 61.28 61.0995 62.4867L60.3853 63.2009H49.7465H39.1077L38.3935 62.4867C37.2114 61.28 37.507 59.4083 39.0338 58.571C39.7234 58.177 59.6712 58.177 60.41 58.5464ZM27.6562 61.6001C29.7987 62.1666 31.9413 63.3486 33.542 64.8755L34.9704 66.23V74.0367V81.8188L33.9853 82.3852C31.9166 83.5427 31.3995 85.2912 32.7293 86.6211C33.2219 87.089 33.7144 87.3352 34.207 87.3352H34.9704V91.3741V95.4129L33.8622 96.0532C32.5323 96.8412 32.0152 97.5554 32.0152 98.5897C32.0152 99.7226 33.0987 100.905 34.1823 100.929L34.9704 100.954V104.968V108.982L33.8622 109.647C33.2465 109.992 32.5816 110.534 32.3846 110.805C31.8181 111.617 31.9166 112.799 32.6308 113.637C33.5667 114.745 34.4532 114.843 36.0293 114.031L37.3592 113.366L42.5308 117.158L47.7025 120.951L29.8234 121.025C17.5099 121.074 11.5502 121.025 10.6883 120.828C9.03826 120.483 7.36363 119.399 6.40319 118.094C4.85169 115.952 4.90094 116.888 4.97483 90.6352C5.04871 66.9688 5.04871 66.7718 5.56587 65.6389C6.52632 63.5949 8.20095 62.1173 10.3435 61.4524C10.6883 61.3539 14.4069 61.2554 18.5935 61.2554C24.6271 61.2307 26.548 61.3046 27.6562 61.6001ZM90.307 61.9203C91.9324 62.7822 93.016 63.8658 93.7548 65.368L94.4443 66.7718L94.5182 90.6352C94.5921 116.888 94.6413 115.952 93.0899 118.045C92.1048 119.375 90.4055 120.483 88.8294 120.828C87.9428 121.025 82.057 121.074 69.6697 121.025L51.7906 120.951L56.7159 117.38C62.5279 113.144 63.7346 112.135 64.1779 111.051C64.4488 110.46 64.5227 108.711 64.5227 103.909V97.5554L65.6555 96.9644C66.7883 96.3487 67.4779 95.4129 67.4779 94.5017C67.4779 93.2211 66.2958 92.0144 65.0152 92.0144C64.5473 92.0144 64.5227 91.8912 64.5227 88.0002V84.0106L65.7294 83.2964C67.0346 82.533 67.4779 81.8434 67.4779 80.6614C67.4779 79.627 66.2958 78.4696 65.2861 78.4696H64.5227V74.4554V70.4412L65.5077 69.8748C67.601 68.6927 68.0936 66.9688 66.7145 65.5897L65.9264 64.8263L66.813 64.0628C67.3055 63.6442 68.3152 63.0039 69.054 62.6345C71.7383 61.3046 72.3294 61.2554 81.1458 61.3046C89.051 61.3539 89.2973 61.3785 90.307 61.9203ZM58.2182 68.3479C58.095 68.471 54.2779 70.6875 49.7465 73.2979C45.2152 75.9084 41.1271 78.2479 40.7085 78.5188L39.8958 79.0114V73.5688V68.1263H49.1801C54.4995 68.1263 58.3659 68.2248 58.2182 68.3479ZM59.3018 81.3017C59.0801 81.4987 42.4077 91.177 40.0682 92.433C39.9696 92.5069 39.9204 90.7584 39.945 88.5666L40.0189 84.6017L49.7465 78.9867L59.4741 73.3718L59.548 77.189C59.5973 80.0703 59.5234 81.1046 59.3018 81.3017ZM59.5973 90.8323L59.5727 94.8464L49.9435 100.387C44.6488 103.441 40.2159 105.953 40.0928 106.002C39.9943 106.052 39.8958 104.328 39.8958 102.185V98.2696L49.6973 92.5808C55.0659 89.4532 59.4988 86.892 59.548 86.8673C59.5727 86.8427 59.5973 88.6405 59.5973 90.8323ZM59.5973 104.894V109.13L54.8197 112.652C52.1846 114.573 49.8943 116.149 49.6973 116.124C49.1801 116.124 42.2353 110.879 42.3585 110.608C42.457 110.361 59.0555 100.683 59.4249 100.658C59.5234 100.634 59.5973 102.555 59.5973 104.894Z" fill="#4D4D4D"/>
<path d="M34.0839 0.156124C30.3159 0.845676 26.6712 2.84046 23.9376 5.69717C21.6719 8.06136 20.6376 9.76061 19.6279 12.642C18.1995 16.7793 18.4704 22.7144 20.3174 27.3688C21.2532 29.7576 23.0264 32.7129 24.5286 34.3629L25.7846 35.742L30.3898 35.8159L34.9704 35.9144V39.9039C34.9704 44.3368 35.0936 44.7554 36.5958 45.3711C37.8025 45.8883 61.6906 45.8883 62.8973 45.3711C64.3996 44.7554 64.5227 44.3368 64.5227 39.9039V35.9144L69.1033 35.8159L73.7085 35.742L74.9645 34.3629C76.4667 32.7129 78.2399 29.7576 79.1757 27.3688C81.0227 22.7144 81.2936 16.7793 79.8652 12.642C78.8555 9.78524 77.8212 8.08598 75.6294 5.77106C73.413 3.40688 71.0734 1.92926 67.9705 0.870304C65.8279 0.131496 65.3846 0.0576172 62.4294 0.0576172C57.8488 0.0329895 54.8689 0.944187 51.3227 3.50538L49.7466 4.61359L48.1704 3.50538C46.3234 2.17553 44.0331 1.06732 41.9891 0.525528C40.2159 0.0329895 35.8324 -0.164024 34.0839 0.156124ZM40.2159 5.20464C41.9645 5.57404 44.9689 7.0024 45.7077 7.81509C46.1018 8.23375 46.1018 8.35688 45.8063 8.55389C45.1906 8.94793 43.048 9.51434 42.1615 9.51434C41.0779 9.51434 39.8958 10.6472 39.8958 11.7061C39.8958 14.292 42.26 15.0554 46.151 13.7009C48.1458 13.036 49.4018 12.1248 51.8398 9.66211C56.051 5.40165 60.4593 3.99792 65.6063 5.32777C68.1182 5.96807 69.9406 7.02703 71.9354 8.99718C74.5951 11.6569 75.8511 14.8338 75.8511 18.9464C75.8511 22.5173 74.6443 26.3345 72.5757 29.3882L71.5414 30.9397H49.7466H27.9518L26.8928 29.3882C24.8241 26.3345 23.642 22.5173 23.642 18.8726C23.642 16.3114 23.9868 14.7106 25.0704 12.4696C26.0801 10.3024 28.395 7.83971 30.5868 6.60837C33.3697 5.00762 36.9159 4.49046 40.2159 5.20464ZM59.5973 38.3278V40.7905H49.7466H39.8958V38.3278V35.8651H49.7466H59.5973V38.3278Z" fill="#4D4D4D"/>
<path d="M38.098 53.6949C36.4973 54.1382 35.0196 55.1971 34.0592 56.6255C33.6405 57.2412 33.2465 57.9061 33.1972 58.0539C33.1234 58.2509 32.5816 58.1277 31.4241 57.6845C28.3457 56.4531 27.1144 56.3054 18.5935 56.3054C12.3629 56.3054 10.3927 56.3792 9.28453 56.6748C4.85169 57.8322 1.20691 61.6494 0.271088 66.1069C0.0740731 67.0181 0.000192398 74.8002 0.000192398 91.2263C0.000192398 117.232 -0.0490614 116.37 1.42855 119.35C2.31512 121.123 4.90094 123.709 6.69871 124.571C9.8017 126.073 7.33901 125.999 49.7465 125.999C92.1787 125.999 89.7899 126.073 92.8436 124.571C94.5675 123.734 97.2026 121.099 98.0645 119.35C99.5421 116.395 99.4929 117.232 99.4929 91.2263C99.4929 74.8002 99.419 67.0181 99.222 66.1069C98.5324 62.8069 95.7988 59.1621 92.9175 57.6845C90.3809 56.4039 89.4697 56.3054 80.7764 56.3054C72.1077 56.3054 71.0488 56.4285 67.995 57.7091C66.8622 58.177 66.3697 58.2755 66.2958 58.0785C66.2465 57.9061 65.8525 57.2412 65.4339 56.6009C64.4734 55.1725 62.7249 53.9658 61.0749 53.621C59.1786 53.2024 39.6495 53.2762 38.098 53.6949ZM60.41 58.5464C61.9615 59.3345 62.3062 61.28 61.0995 62.4867L60.3853 63.2009H49.7465H39.1077L38.3935 62.4867C37.2114 61.28 37.507 59.4083 39.0338 58.571C39.7234 58.177 59.6712 58.177 60.41 58.5464ZM27.6562 61.6001C29.7987 62.1666 31.9413 63.3486 33.542 64.8755L34.9704 66.23V74.0367V81.8188L33.9853 82.3852C31.9166 83.5427 31.3995 85.2912 32.7293 86.6211C33.2219 87.089 33.7144 87.3352 34.207 87.3352H34.9704V91.3741V95.4129L33.8622 96.0532C32.5323 96.8412 32.0152 97.5554 32.0152 98.5897C32.0152 99.7226 33.0987 100.905 34.1823 100.929L34.9704 100.954V104.968V108.982L33.8622 109.647C33.2465 109.992 32.5816 110.534 32.3846 110.805C31.8181 111.617 31.9166 112.799 32.6308 113.637C33.5667 114.745 34.4532 114.843 36.0293 114.031L37.3592 113.366L42.5308 117.158L47.7025 120.951L29.8234 121.025C17.5099 121.074 11.5502 121.025 10.6883 120.828C9.03826 120.483 7.36363 119.399 6.40319 118.094C4.85169 115.952 4.90094 116.888 4.97483 90.6352C5.04871 66.9688 5.04871 66.7718 5.56587 65.6389C6.52632 63.5949 8.20095 62.1173 10.3435 61.4524C10.6883 61.3539 14.4069 61.2554 18.5935 61.2554C24.6271 61.2307 26.548 61.3046 27.6562 61.6001ZM90.307 61.9203C91.9324 62.7822 93.016 63.8658 93.7548 65.368L94.4443 66.7718L94.5182 90.6352C94.5921 116.888 94.6413 115.952 93.0899 118.045C92.1048 119.375 90.4055 120.483 88.8294 120.828C87.9428 121.025 82.057 121.074 69.6697 121.025L51.7906 120.951L56.7159 117.38C62.5279 113.144 63.7346 112.135 64.1779 111.051C64.4488 110.46 64.5227 108.711 64.5227 103.909V97.5554L65.6555 96.9644C66.7883 96.3487 67.4779 95.4129 67.4779 94.5017C67.4779 93.2211 66.2958 92.0144 65.0152 92.0144C64.5473 92.0144 64.5227 91.8912 64.5227 88.0002V84.0106L65.7294 83.2964C67.0346 82.533 67.4779 81.8434 67.4779 80.6614C67.4779 79.627 66.2958 78.4696 65.2861 78.4696H64.5227V74.4554V70.4412L65.5077 69.8748C67.601 68.6927 68.0936 66.9688 66.7145 65.5897L65.9264 64.8263L66.813 64.0628C67.3055 63.6442 68.3152 63.0039 69.054 62.6345C71.7383 61.3046 72.3294 61.2554 81.1458 61.3046C89.051 61.3539 89.2973 61.3785 90.307 61.9203ZM58.2182 68.3479C58.095 68.471 54.2779 70.6875 49.7465 73.2979C45.2152 75.9084 41.1271 78.2479 40.7085 78.5188L39.8958 79.0114V73.5688V68.1263H49.1801C54.4995 68.1263 58.3659 68.2248 58.2182 68.3479ZM59.3018 81.3017C59.0801 81.4987 42.4077 91.177 40.0682 92.433C39.9696 92.5069 39.9204 90.7584 39.945 88.5666L40.0189 84.6017L49.7465 78.9867L59.4741 73.3718L59.548 77.189C59.5973 80.0703 59.5234 81.1046 59.3018 81.3017ZM59.5973 90.8323L59.5727 94.8464L49.9435 100.387C44.6488 103.441 40.2159 105.953 40.0928 106.002C39.9943 106.052 39.8958 104.328 39.8958 102.185V98.2696L49.6973 92.5808C55.0659 89.4532 59.4988 86.892 59.548 86.8673C59.5727 86.8427 59.5973 88.6405 59.5973 90.8323ZM59.5973 104.894V109.13L54.8197 112.652C52.1846 114.573 49.8943 116.149 49.6973 116.124C49.1801 116.124 42.2353 110.879 42.3585 110.608C42.457 110.361 59.0555 100.683 59.4249 100.658C59.5234 100.634 59.5973 102.555 59.5973 104.894Z" fill="#4D4D4D"/>
</svg>
