<svg width="124" height="123" viewBox="0 0 124 123" fill="none" xmlns="http://www.w3.org/2000/svg">
<path d="M27.5581 0.258759C18.3966 1.54084 12.7073 5.9213 11.0513 12.9728C10.5171 15.2431 10.6774 22.6418 11.3184 26.1408C11.7992 28.7317 12.8943 32.8985 13.4819 34.2607C13.6956 34.7949 13.8826 35.3024 13.8826 35.3825C13.8826 35.4626 11.0513 35.5161 7.6057 35.5161H1.30212L0.661075 36.1838C-0.220358 37.0385 -0.220358 38.2672 0.661075 39.1219L1.30212 39.7897H8.64739H15.966L16.5803 40.7779C16.9008 41.3389 18.0226 43.1017 19.0376 44.6776C21.7086 48.8711 22.9106 51.5688 23.4181 54.3734C23.9256 57.2848 23.7386 59.2346 22.0559 69.4379C20.5334 78.4926 20.5067 79.0001 21.3614 79.8548C21.949 80.4424 23.2044 80.5493 24.0324 80.1219C24.5666 79.8281 24.9672 78.7597 25.2076 77.0502C25.2878 76.4626 25.8487 73.0971 26.4096 69.5714C28.2259 58.5401 28.3327 56.3766 27.3444 52.0763C26.8637 49.9395 24.8604 45.7994 22.7236 42.5141C21.8155 41.1519 21.0943 39.9766 21.0943 39.8965C21.0943 39.8431 22.6168 39.7897 24.5132 39.7897C28.1725 39.763 28.5998 39.6294 29.0806 38.374C29.4278 37.4926 29.1073 36.531 28.2526 35.9434C27.7718 35.5962 26.837 35.5161 23.0708 35.5161H18.4767L17.622 33.1656C15.6187 27.7167 14.8174 22.7754 15.0044 17.1662C15.1379 12.8926 15.6721 11.3701 17.8089 9.07308C19.7855 6.90957 22.6168 5.52065 26.3829 4.79947C29.8285 4.13171 36.6663 4.0783 41.4474 4.69263C45.9347 5.25354 53.093 6.7226 57.6604 8.00468C59.7438 8.5923 61.6669 9.07308 61.9607 9.07308C62.2545 9.07308 64.2044 8.5923 66.2877 8.00468C70.7216 6.77602 75.1555 5.78774 79.8565 5.01315C82.5008 4.55908 84.6376 4.42553 90.0063 4.37211C93.7457 4.31869 96.8975 4.29198 97.0043 4.29198C97.4584 4.23856 98.2864 3.03661 98.2864 2.36885C98.2864 1.35387 97.5118 0.525856 96.2832 0.258759C94.6004 -0.141891 86.2135 -0.0617676 82.3939 0.392303C76.6245 1.06006 69.6532 2.5024 64.1777 4.15842L61.9874 4.79947L59.2897 4.02488C55.577 2.90305 48.9262 1.46071 44.4656 0.792961C40.2988 0.151917 30.5229 -0.141891 27.5581 0.258759Z" fill="#4D4D4D"/>
<path d="M102.934 3.27711C101.812 4.26538 101.919 5.49405 103.228 6.53574C103.816 6.9631 105.017 8.05821 105.926 8.93964C108.276 11.2901 108.784 12.6791 108.917 17.38C109.077 22.8823 108.223 27.8771 106.246 33.1657L105.391 35.5162H94.3869H83.3556L83.2755 31.2426L83.1954 26.969L82.1804 25.9807L81.1921 24.9657H74.7817H68.3713L67.383 25.9807L66.368 26.969L66.2879 31.2426L66.2077 35.5162H61.9608H57.7139L57.6338 31.2426L57.5537 26.969L56.5387 25.9807L55.5504 24.9657H49.14H42.7296L41.7413 25.9807L40.7263 26.969L40.6462 31.2426L40.5661 35.5162H38.082C35.9719 35.5162 35.4911 35.5963 34.8768 36.0771C33.8885 36.8517 33.8885 38.4543 34.8768 39.2289C35.4911 39.7097 35.9719 39.7898 38.082 39.7898H40.5661L40.6462 44.0634L40.7263 48.337L41.7413 49.3253L42.7296 50.3403H49.14H55.5504L56.5387 49.3253L57.5537 48.337L57.6338 44.0634L57.7139 39.7898H61.9608H66.2077L66.2879 44.0634L66.368 48.337L67.383 49.3253L68.3713 50.3403H74.7817H81.1921L82.1804 49.3253L83.1954 48.337L83.2755 44.0634L83.3556 39.7898H93.1048C98.4468 39.7898 102.827 39.8432 102.827 39.8966C102.827 39.9768 102.106 41.152 101.198 42.5142C99.0611 45.8263 97.0846 49.9129 96.497 52.21C95.6957 55.5755 95.9093 59.9025 97.2983 68.236C99.0611 78.5728 99.3817 81.324 99.3817 86.2119C99.3817 95.9077 97.0045 103.119 90.7543 112.521C89.5791 114.258 88.5641 115.646 88.5107 115.593C88.4572 115.54 88.0032 114.231 87.469 112.708C84.1569 103.173 79.3758 92.836 75.6364 87.2002C71.7901 81.4308 68.6384 78.3057 64.6853 76.3292C62.5218 75.2341 62.4416 75.2074 61.213 75.5546C58.2214 76.3292 53.7341 79.9083 50.6358 83.9683C45.8547 90.2184 40.4325 101.25 36.7198 112.254C36.1322 113.964 35.5713 115.379 35.4644 115.379C35.1439 115.379 32.3126 111.293 30.8436 108.702C28.5732 104.722 26.1426 98.6588 25.5016 95.4269C25.2078 93.9846 24.4065 93.21 23.2312 93.21C22.4299 93.21 22.0827 93.3702 21.6553 93.9044C20.9342 94.8126 20.9609 95.5872 21.7622 98.365C23.6853 105.016 27.1576 111.8 31.6716 117.783C34.4227 121.389 35.3843 122.324 36.426 122.324C37.6814 122.324 38.2957 121.496 39.097 118.665C40.5126 113.643 43.3973 105.977 45.9081 100.555C50.7693 89.9246 55.9244 82.8732 60.5185 80.4692L61.9608 79.7214L63.51 80.5227C65.7002 81.6445 69.1459 85.2236 71.6299 88.9363C76.3309 96.0145 81.5927 107.901 84.9582 119.065C85.7061 121.549 85.8664 121.87 86.641 122.217C87.8963 122.831 88.6709 122.377 90.6742 119.867C96.4703 112.575 100.53 104.882 102.32 97.8575C103.388 93.6106 103.682 90.9663 103.682 85.9982C103.655 81.137 103.361 78.5728 101.625 68.0758C100.984 64.1761 100.37 59.9025 100.29 58.5937C99.9693 54.0797 101.118 50.6074 104.884 44.6777C105.899 43.1018 107.021 41.339 107.341 40.7781L107.956 39.7898H115.274H122.619L123.26 39.122C123.688 38.7214 123.928 38.1605 123.928 37.653C123.928 37.1455 123.688 36.5846 123.26 36.1839L122.619 35.5162H116.316C112.87 35.5162 110.039 35.4628 110.039 35.3826C110.039 35.3025 110.226 34.795 110.44 34.2608C111.027 32.8719 112.122 28.7318 112.603 26.1409C112.817 24.9123 113.084 21.7872 113.164 19.223C113.324 13.9612 113.084 12.412 111.615 9.39371C110.173 6.4289 106.059 2.66277 104.243 2.66277C103.922 2.66277 103.335 2.95659 102.934 3.27711ZM53.4136 37.653V46.2002H49.14H44.8664V37.653V29.1058H49.14H53.4136V37.653ZM79.0553 37.653V46.2002H74.7817H70.5081V37.653V29.1058H74.7817H79.0553V37.653Z" fill="#4D4D4D"/>
<path d="M20.9339 85.2769C19.9724 86.1316 19.9724 87.4939 20.9606 88.3219C21.8421 89.0965 22.6968 89.0965 23.6049 88.3753C24.1391 87.9479 24.2994 87.6007 24.2994 86.7994C24.2994 84.9297 22.3763 84.0483 20.9339 85.2769Z" fill="#4D4D4D"/>
</svg>
