<svg width="125" height="127" viewBox="0 0 125 127" fill="none" xmlns="http://www.w3.org/2000/svg">
<path d="M45.6976 0.277687C44.9824 0.410141 43.4194 0.99295 42.2273 1.54927C37.9092 3.6156 34.8097 7.88071 34.1209 12.6492L33.803 14.795H17.5638H1.29808L0.662284 15.4572C0 16.093 0 16.146 0 21.1529C0 26.1598 0 26.2127 0.662284 26.8485L1.29808 27.5108H16.0538H30.783L30.3591 28.0936C26.9417 32.7826 25.8291 35.5642 25.5112 40.2267C25.1403 46.1078 27.6305 52.2008 31.9751 56.095C33.9355 57.8699 36.8495 59.5919 38.9158 60.2277L40.5318 60.7045L40.3729 63.7775C40.0815 68.7049 40.9292 74.3741 42.6776 79.3545C43.1015 80.5201 44.2671 83.2752 45.2738 85.4475C49.7243 95.0638 52.347 104.15 53.7775 115.038C54.0954 117.343 54.5722 119.886 54.8636 120.681C55.6319 122.694 57.8572 125.026 60.0824 126.112C61.6984 126.906 62.0428 126.986 64.3741 126.986C66.5463 126.986 67.1027 126.88 68.4272 126.271C70.4671 125.317 71.8181 124.204 72.7983 122.721C73.2487 122.085 74.8117 118.482 76.3217 114.72C78.494 109.263 79.2092 107.753 79.9245 107.064C81.4875 105.581 83.8187 105.581 85.3817 107.064C86.097 107.753 86.8122 109.263 88.9845 114.72C90.4946 118.482 92.0575 122.085 92.5079 122.721C93.4881 124.204 94.8391 125.317 96.879 126.271C98.2035 126.88 98.7599 126.986 100.932 126.986C103.263 126.986 103.608 126.906 105.224 126.112C107.449 125.026 109.674 122.694 110.443 120.655C110.734 119.86 111.105 118.164 111.264 116.866C112.88 104.362 115.317 95.6467 120.059 85.3945C123.317 78.4008 124.695 73.2879 124.96 67.2479C125.463 56.201 121.225 47.4853 112.827 42.2665C108.217 39.4055 104.191 38.2663 98.5214 38.2663L94.6537 38.2398L95.422 36.4119C96.932 32.8886 97.3028 30.9282 97.3293 26.5836C97.3293 22.2125 97.0379 20.5171 95.6074 16.9408C90.2296 3.45665 74.0964 -2.82181 61.1421 3.53613L59.3672 4.38385L58.0956 3.35069C54.7312 0.542603 50.1747 -0.570038 45.6976 0.277687ZM53.3801 5.36403C54.6517 5.99982 55.7379 6.79456 56.6386 7.77475C58.334 9.60265 58.9433 9.65563 61.3805 8.17212C63.2614 7.05948 66.2284 5.97334 68.7186 5.54947C73.0367 4.78122 78.388 5.70842 82.3617 7.93369C87.3156 10.7153 91.1833 15.7486 92.6139 21.2854C93.2497 23.749 93.2761 29.1003 92.6668 31.3521C90.6535 38.7167 85.8321 44.0415 79.0503 46.3727C71.6857 48.9159 64.3211 47.4853 57.9366 42.24C55.9763 40.6506 55.7379 40.5446 54.5987 41.1539C53.7775 41.5778 53.5126 42.0281 53.5126 43.0878C53.5126 43.909 55.5259 45.9488 57.8837 47.4853C58.7579 48.0681 59.5261 48.545 59.5526 48.598C59.6056 48.6245 59.1817 49.3662 58.5724 50.2404C53.0093 58.4528 41.4855 59.4859 34.4123 52.4392C29.3789 47.4059 28.2663 40.0148 31.5777 33.7893C32.5844 31.9349 34.7832 29.4182 36.4521 28.2791L37.5913 27.5108H42.0948H46.6248V32.1468C46.6248 36.7298 46.6248 36.8093 47.2871 37.4451C48.1348 38.3193 49.3534 38.3193 50.2012 37.4451C50.8634 36.8093 50.8634 36.7298 50.8634 32.1468V27.5108H52.9828H55.1021V32.1468C55.1021 36.7298 55.1021 36.8093 55.7644 37.4451C56.1617 37.869 56.718 38.1074 57.2214 38.1074C57.7247 38.1074 58.281 37.869 58.6784 37.4451C59.3407 36.8093 59.3407 36.7298 59.3407 32.1468V27.5108H61.46H63.5793V32.1468C63.5793 36.7298 63.5793 36.8093 64.2416 37.4451C65.0893 38.3193 66.3079 38.3193 67.1556 37.4451C67.8179 36.8093 67.8179 36.7298 67.8179 32.1468V27.5108H69.9372H72.0565V32.1468C72.0565 36.7298 72.0565 36.8093 72.7188 37.4451C73.1162 37.869 73.6725 38.1074 74.1759 38.1074C74.6792 38.1074 75.2355 37.869 75.6329 37.4451C76.2952 36.8093 76.2952 36.7298 76.2952 32.1468V27.5108H78.4145H80.5338V32.1468C80.5338 36.7298 80.5338 36.8093 81.1961 37.4451C82.0438 38.3193 83.2624 38.3193 84.1101 37.4451L84.7724 36.8093V26.4512V16.093L84.1101 15.4572L83.4743 14.795H60.7712H38.0681L38.2536 13.3909C38.6774 10.2384 40.8762 7.05948 43.6843 5.57596C45.7771 4.43683 46.9162 4.19841 49.3799 4.33086C51.1019 4.41034 51.7906 4.56929 53.3801 5.36403ZM80.5338 21.1529V23.2722H42.3862H4.23862V21.1529V19.0336H42.3862H80.5338V21.1529ZM102.919 42.8493C115.423 45.4455 122.258 55.9626 120.509 69.897C119.979 74.2946 118.893 77.818 116.35 83.2752C111.555 93.6598 108.986 102.402 107.529 113.21C106.813 118.562 106.681 119.118 105.727 120.416C104.138 122.615 101.012 123.436 98.5479 122.323C96.1637 121.264 96.0842 121.105 92.7198 112.681C91.3953 109.343 90.1237 106.296 89.9117 105.872C89.3289 104.733 87.8189 103.356 86.2824 102.561C85.0903 101.925 84.587 101.819 82.6531 101.819C80.7192 101.819 80.2159 101.925 79.0238 102.561C77.4873 103.356 75.9773 104.733 75.3945 105.872C75.1825 106.296 73.9109 109.343 72.5864 112.681C69.7253 119.833 69.4074 120.496 68.3743 121.37C66.3079 123.092 63.5263 123.304 61.2746 121.926C59.1288 120.602 58.6784 119.542 57.8837 113.873C56.2412 102.111 53.804 93.7658 48.9296 83.2752C45.5387 75.9106 44.0817 69.2612 44.6115 63.4861L44.7969 61.4993L47.0752 61.3138C53.0622 60.8635 59.1023 57.2871 62.3607 52.2803C62.9435 51.4061 63.4204 50.6378 63.4733 50.6113C63.4998 50.5583 64.6655 50.7703 66.0165 51.1146C68.9306 51.8299 74.3613 51.9624 76.9575 51.3796C81.9378 50.2934 86.2559 48.0152 89.6733 44.7037C90.9714 43.4586 92.0575 43.0083 94.8391 42.5314C96.6405 42.24 100.72 42.399 102.919 42.8493Z" fill="#4D4D4D"/>
<path d="M63.5792 59.6446C62.2812 60.0685 60.0559 62.3467 59.6585 63.6978C58.9168 66.188 59.4466 68.1748 61.3275 70.0292C64.0296 72.7579 67.7649 72.7049 70.2816 69.8968C72.7453 67.1682 72.6658 63.8567 70.0696 61.2871C68.2152 59.4062 66.0429 58.8764 63.5792 59.6446ZM67.1556 64.2011C68.4801 65.4992 67.5529 67.7775 65.6985 67.7775C64.6124 67.7775 63.5792 66.7443 63.5792 65.6582C63.5792 64.572 64.6124 63.5389 65.6985 63.5389C66.2019 63.5389 66.7582 63.7773 67.1556 64.2011Z" fill="#4D4D4D"/>
<path d="M97.4884 59.645C96.1903 60.0689 93.9651 62.3471 93.5677 63.6982C92.8259 66.1884 93.3558 68.1752 95.2366 70.0296C97.9123 72.7317 101.303 72.7317 103.979 70.0296C106.575 67.46 106.654 64.1485 104.191 61.4199C102.469 59.5125 100.005 58.8503 97.4884 59.645ZM101.065 64.2015C102.389 65.4996 101.462 67.7779 99.6077 67.7779C98.5216 67.7779 97.4884 66.7447 97.4884 65.6585C97.4884 64.5724 98.5216 63.5392 99.6077 63.5392C100.111 63.5392 100.667 63.7777 101.065 64.2015Z" fill="#4D4D4D"/>
<path d="M68.4802 76.9175C68.0033 77.3678 67.8179 77.8447 67.8179 78.5864C67.8179 82.1627 69.5398 86.1629 72.2419 88.8386C78.0965 94.6402 87.342 94.6137 93.1171 88.7856C95.7928 86.0835 97.4882 82.1363 97.4882 78.5864C97.4882 77.8447 97.3028 77.3678 96.8259 76.9175L96.1901 76.2552H82.653H69.1159L68.4802 76.9175ZM92.9847 80.8647C92.9847 81.0501 92.5608 82.0568 92.0575 83.0635C90.9184 85.3417 89.3289 86.8782 86.9446 87.9909C85.3287 88.7591 84.9313 88.8386 82.653 88.8386C80.3748 88.8386 79.9774 88.7591 78.3614 87.9909C75.9772 86.8782 74.3877 85.3417 73.2486 83.0635C72.7453 82.0568 72.3214 81.0501 72.3214 80.8647C72.3214 80.5468 74.0963 80.4938 82.653 80.4938C91.2098 80.4938 92.9847 80.5468 92.9847 80.8647Z" fill="#4D4D4D"/>
<path d="M111.794 2.50284C106.707 4.35723 104.561 9.84095 107.052 14.5564C108.005 16.3313 108.853 17.1526 110.84 18.1857C111.979 18.7685 112.535 18.8745 114.443 18.901C116.536 18.901 116.827 18.8215 118.416 17.9473C124.536 14.5829 124.298 5.86724 118.019 2.90021C116.297 2.07898 113.463 1.89354 111.794 2.50284ZM116.112 6.68848C118.867 7.82761 119.503 11.3245 117.357 13.4703C115.608 15.2187 113.224 15.2452 111.502 13.4968C108.217 10.2383 111.847 4.88706 116.112 6.68848Z" fill="#4D4D4D"/>
<path d="M11.7888 65.9498C9.40455 66.4267 6.27857 68.1486 4.45066 69.9765C1.48363 72.9435 0.132568 76.202 0.132568 80.4936C0.132568 84.7322 1.48363 88.0436 4.39768 90.9312C7.28524 93.8452 10.5967 95.1963 14.8353 95.1963C17.8818 95.1963 19.3388 94.8254 22.0939 93.3684C25.1404 91.7789 27.7631 88.5205 29.0347 84.7322C29.7234 82.7189 29.7234 78.2683 29.0347 76.255C27.8426 72.7581 25.3259 69.4732 22.5973 67.8572C19.4978 66.0558 15.1267 65.2875 11.7888 65.9498ZM19.1799 70.9037C21.5906 72.0163 23.1271 73.5528 24.3192 75.9371C25.2464 77.8444 25.2994 78.0829 25.2994 80.4936C25.2994 82.9043 25.2464 83.1427 24.3192 85.0501C23.1271 87.4608 21.5906 88.9443 19.1269 90.1099C17.5109 90.8782 17.1135 90.9577 14.8353 90.9577C12.557 90.9577 12.1597 90.8782 10.5437 90.1099C8.07998 88.9443 6.54348 87.4608 5.35137 85.0501C4.42417 83.1427 4.37119 82.9043 4.37119 80.5201C4.37119 78.2153 4.45066 77.8179 5.21891 76.202C6.27857 73.9502 7.78858 72.3077 9.77543 71.2746C11.8418 70.1619 13.0074 69.897 15.4181 70.003C17.0341 70.0825 17.8553 70.2944 19.1799 70.9037Z" fill="#4D4D4D"/>
</svg>
