<svg width="125" height="126" viewBox="0 0 125 126" fill="none" xmlns="http://www.w3.org/2000/svg">
<path d="M37.6117 0.663345C29.0546 2.88556 21.8241 10.2155 19.2039 19.3034C18.2089 22.7859 17.9767 28.8556 18.7395 32.5371C19.3697 35.7544 20.7627 39.2369 22.3879 41.824C22.985 42.819 23.4161 43.7145 23.2835 43.814C23.1508 43.9467 22.4543 44.212 21.7246 44.4442C19.9999 45.0081 17.7113 46.1357 14.4278 48.0926C10.9784 50.1822 8.25866 51.0445 4.37809 51.3762C1.65837 51.6084 1.12769 51.7742 0.597012 52.4044C0.0331673 53.1009 0 54.6266 0 82.5535C0 108.059 0.0663346 112.238 0.530677 113.93C1.8242 118.938 5.87062 123.051 10.8789 124.444C12.9684 125.008 15.4891 125.041 62.0229 125.041C115.522 125.041 113.001 125.14 116.417 123.15C118.54 121.89 120.729 119.734 121.956 117.678C124.112 114.129 124.046 115.024 124.046 82.5535C124.046 54.4939 124.013 53.1009 123.449 52.4044C122.918 51.741 122.387 51.6084 119.369 51.3762C114.892 51.0777 112.039 50.0827 108.623 47.7609C106.832 46.5338 103.615 44.9417 101.923 44.4442C101.127 44.212 100.497 43.9135 100.497 43.814C100.497 43.7145 101.028 42.819 101.658 41.824C103.283 39.2701 104.676 35.7544 105.306 32.5371C106.069 28.8556 105.837 22.7859 104.842 19.3034C102.653 11.7412 97.2466 5.30677 90.4804 2.15587C87.0642 0.597011 84.3777 -1.0232e-06 80.4971 -1.0232e-06C74.9913 -1.0232e-06 70.7459 1.32669 66.003 4.51075C64.0129 5.83745 63.4822 6.03645 62.0229 6.03645C60.5635 6.03645 60.0328 5.83745 58.0428 4.51075C53.2335 1.26036 49.0213 -1.0232e-06 43.3829 0.0331663C41.1606 0.0331663 39.1374 0.265338 37.6117 0.663345ZM50.3812 5.63844C51.542 6.03645 53.5652 7.13097 54.8919 7.99332C58.2086 10.2155 59.469 10.713 62.0229 10.713C64.5768 10.713 65.8371 10.2155 69.1539 7.99332C72.6033 5.70478 74.9913 4.94193 79.5021 4.74293C82.8851 4.57709 83.5153 4.64342 86.036 5.43944C91.575 7.16414 96.0857 11.1442 98.8718 16.7495C102.553 24.179 101.857 33.4658 97.1139 40.3646C96.5832 41.1606 94.9249 43.1175 93.4323 44.7095C89.1869 49.2535 87.5949 53.2667 87.5617 59.4027C87.5617 67.5287 84.5103 75.2235 79.1041 80.8288C77.0145 83.0178 76.5833 83.3163 76.1522 82.9515C75.7873 82.6198 75.6215 81.9233 75.6215 80.4639C75.5883 70.7459 73.1339 58.9715 70.0162 53.6979C65.5718 46.1689 59.3695 45.7046 54.7592 52.5702C51.3098 57.7443 49.1208 66.7327 48.4906 78.2749C48.2584 82.4871 48.2253 82.7525 47.5619 82.852C47.0644 82.9183 46.2352 82.2881 44.61 80.5303C39.4028 74.8918 36.484 67.3628 36.484 59.4027C36.4509 53.3331 34.7925 49.1871 30.5803 44.7095C27.761 41.6913 26.4344 39.8671 25.0745 37.2137C22.1889 31.4758 22.1558 23.0513 25.0082 17.0812C27.8605 11.1111 32.7693 6.83247 38.6731 5.14093C41.1938 4.41125 47.6946 4.67659 50.3812 5.63844ZM28.2917 49.0876C30.7129 51.7079 31.8406 55.1573 31.8406 59.7343C31.8406 68.6564 35.3564 77.512 41.4923 84.0792C44.1125 86.8652 45.3066 87.5949 47.3629 87.6281C49.2535 87.6281 50.6465 86.9979 51.8405 85.5717C52.8687 84.3777 52.9682 83.7807 53.2335 77.9432C53.6316 69.0212 55.0246 62.3214 57.5453 57.1473C60.6962 50.7792 63.3496 50.7792 66.5005 57.1473C69.0544 62.3877 70.4474 69.187 70.8122 78.308C71.0776 84.1123 71.0776 84.2782 72.1721 85.5717C73.3661 86.9979 74.7923 87.6281 76.6497 87.6281C78.6729 87.6281 79.9332 86.8652 82.5535 84.0792C88.6894 77.512 92.2051 68.6564 92.2051 59.7343C92.2051 55.1573 93.3328 51.7079 95.754 49.0876C96.7159 47.9931 97.0807 47.7941 97.8104 47.9599C99.701 48.4243 103.548 50.1158 105.97 51.5752C110.779 54.4939 114.991 56.0196 118.341 56.0528H119.402L119.336 84.4772L119.237 112.935L118.341 114.593C117.28 116.583 115.455 118.374 113.432 119.436L111.94 120.232H62.0229H12.1061L10.6135 119.436C8.59034 118.374 6.76613 116.583 5.70478 114.593L4.80926 112.935L4.70976 84.5435L4.64342 56.1523L6.53396 55.9201C9.45269 55.5884 13.6318 53.9964 17.1475 51.8737C20.0994 50.0827 25.373 47.7941 26.567 47.7609C26.8655 47.7609 27.6615 48.358 28.2917 49.0876Z" fill="#4D4D4D"/>
<path d="M106.169 64.8421C104.643 65.3064 102.719 66.9316 101.99 68.3246C100.232 71.774 102.023 76.4175 105.638 77.7773C111.376 79.9995 116.915 74.3611 114.593 68.7226C113.233 65.5054 109.519 63.7807 106.169 64.8421ZM109.585 69.6845C111.31 71.0444 110.248 73.7972 108.059 73.5651C105.837 73.3329 105.174 70.5137 107.097 69.4855C108.258 68.8553 108.557 68.8885 109.585 69.6845Z" fill="#4D4D4D"/>
<path d="M19.2704 85.8039C16.219 86.8984 13.9304 90.3478 13.9304 93.8304C13.9304 96.9149 16.5506 100.53 19.4362 101.525C21.4262 102.189 24.146 102.056 25.8707 101.16C27.8939 100.165 28.7894 99.303 29.7512 97.3461C30.7794 95.3561 30.9121 92.4042 30.0497 90.381C28.325 86.3014 23.5489 84.2782 19.2704 85.8039ZM24.2455 90.4473C24.7761 90.7458 25.4395 91.5418 25.738 92.172C26.2355 93.2002 26.2355 93.4987 25.8375 94.6595C24.3118 98.9713 18.0763 97.6778 18.6733 93.1338C19.0382 90.381 21.8242 89.0211 24.2455 90.4473Z" fill="#4D4D4D"/>
<path d="M78.2418 100.099C73.6647 102.487 72.935 108.656 76.7824 112.039C80.0328 114.892 84.3446 114.726 87.197 111.608C91.5751 106.865 88.2252 99.1703 81.7575 99.1703C80.4972 99.1703 79.5353 99.4357 78.2418 100.099ZM83.7476 104.643C85.7708 106.633 83.6481 110.149 80.9284 109.286C77.877 108.325 78.5403 103.814 81.7575 103.814C82.5867 103.814 83.2169 104.079 83.7476 104.643Z" fill="#4D4D4D"/>
</svg>
